<mxfile host="app.diagrams.net" agent="Mozilla/5.0 (Windows NT 10.0; Win64; x64) AppleWebKit/537.36 (KHTML, like Gecko) Chrome/128.0.0.0 Safari/537.36" version="24.7.8">
  <diagram name="Page-1" id="kCjXKs0VLWheKjd6JRQ4">
    <mxGraphModel dx="2901" dy="1132" grid="1" gridSize="10" guides="1" tooltips="1" connect="1" arrows="1" fold="1" page="1" pageScale="1" pageWidth="827" pageHeight="1169" math="0" shadow="0">
      <root>
        <mxCell id="0" />
        <mxCell id="1" parent="0" />
        <mxCell id="qPw3cwsrZJyYmaxSKjIM-1" value="ADB" style="shape=parallelogram;perimeter=parallelogramPerimeter;whiteSpace=wrap;html=1;fixedSize=1;" vertex="1" parent="1">
          <mxGeometry x="400" y="80" width="120" height="60" as="geometry" />
        </mxCell>
        <mxCell id="qPw3cwsrZJyYmaxSKjIM-3" value="user managers" style="shape=umlActor;verticalLabelPosition=bottom;verticalAlign=top;html=1;outlineConnect=0;" vertex="1" parent="1">
          <mxGeometry x="347.5" y="60" width="22.5" height="42" as="geometry" />
        </mxCell>
        <mxCell id="qPw3cwsrZJyYmaxSKjIM-7" value="Dashboard" style="shape=parallelogram;perimeter=parallelogramPerimeter;whiteSpace=wrap;html=1;fixedSize=1;" vertex="1" parent="1">
          <mxGeometry x="-110" y="440" width="120" height="60" as="geometry" />
        </mxCell>
        <mxCell id="qPw3cwsrZJyYmaxSKjIM-8" value="Login" style="shape=parallelogram;perimeter=parallelogramPerimeter;whiteSpace=wrap;html=1;fixedSize=1;" vertex="1" parent="1">
          <mxGeometry x="-270" y="190" width="120" height="60" as="geometry" />
        </mxCell>
        <mxCell id="qPw3cwsrZJyYmaxSKjIM-9" value="Resource Page" style="shape=parallelogram;perimeter=parallelogramPerimeter;whiteSpace=wrap;html=1;fixedSize=1;" vertex="1" parent="1">
          <mxGeometry x="330" y="370" width="120" height="60" as="geometry" />
        </mxCell>
        <mxCell id="qPw3cwsrZJyYmaxSKjIM-10" value="Category Classification" style="shape=parallelogram;perimeter=parallelogramPerimeter;whiteSpace=wrap;html=1;fixedSize=1;" vertex="1" parent="1">
          <mxGeometry x="-150" y="600" width="120" height="60" as="geometry" />
        </mxCell>
        <mxCell id="qPw3cwsrZJyYmaxSKjIM-11" value="Comment" style="shape=parallelogram;perimeter=parallelogramPerimeter;whiteSpace=wrap;html=1;fixedSize=1;" vertex="1" parent="1">
          <mxGeometry x="260" y="540" width="120" height="60" as="geometry" />
        </mxCell>
        <mxCell id="qPw3cwsrZJyYmaxSKjIM-12" value="search&amp;nbsp;&lt;div&gt;connections&lt;/div&gt;" style="shape=parallelogram;perimeter=parallelogramPerimeter;whiteSpace=wrap;html=1;fixedSize=1;" vertex="1" parent="1">
          <mxGeometry x="-270" y="600" width="120" height="60" as="geometry" />
        </mxCell>
        <mxCell id="qPw3cwsrZJyYmaxSKjIM-14" value="" style="endArrow=none;html=1;rounded=0;exitX=0.567;exitY=0.05;exitDx=0;exitDy=0;exitPerimeter=0;entryX=0;entryY=1;entryDx=0;entryDy=0;endFill=0;" edge="1" parent="1" source="qPw3cwsrZJyYmaxSKjIM-12" target="qPw3cwsrZJyYmaxSKjIM-7">
          <mxGeometry width="50" height="50" relative="1" as="geometry">
            <mxPoint x="320" y="610" as="sourcePoint" />
            <mxPoint x="370" y="560" as="targetPoint" />
          </mxGeometry>
        </mxCell>
        <mxCell id="qPw3cwsrZJyYmaxSKjIM-15" value="" style="endArrow=none;html=1;rounded=0;entryX=0.25;entryY=1;entryDx=0;entryDy=0;exitX=0.65;exitY=-0.017;exitDx=0;exitDy=0;exitPerimeter=0;endFill=0;" edge="1" parent="1" source="qPw3cwsrZJyYmaxSKjIM-10" target="qPw3cwsrZJyYmaxSKjIM-7">
          <mxGeometry width="50" height="50" relative="1" as="geometry">
            <mxPoint x="430" y="590" as="sourcePoint" />
            <mxPoint x="480" y="540" as="targetPoint" />
          </mxGeometry>
        </mxCell>
        <mxCell id="qPw3cwsrZJyYmaxSKjIM-17" value="user" style="shape=umlActor;verticalLabelPosition=bottom;verticalAlign=top;html=1;outlineConnect=0;" vertex="1" parent="1">
          <mxGeometry x="-170" y="440" width="30" height="60" as="geometry" />
        </mxCell>
        <mxCell id="qPw3cwsrZJyYmaxSKjIM-20" value="" style="endArrow=none;html=1;rounded=0;exitX=0.633;exitY=0.033;exitDx=0;exitDy=0;exitPerimeter=0;entryX=0.5;entryY=1;entryDx=0;entryDy=0;endFill=0;" edge="1" parent="1" source="qPw3cwsrZJyYmaxSKjIM-8" target="qPw3cwsrZJyYmaxSKjIM-1">
          <mxGeometry width="50" height="50" relative="1" as="geometry">
            <mxPoint x="30" y="380" as="sourcePoint" />
            <mxPoint x="80" y="330" as="targetPoint" />
          </mxGeometry>
        </mxCell>
        <mxCell id="qPw3cwsrZJyYmaxSKjIM-21" value="" style="endArrow=none;html=1;rounded=0;entryX=0.5;entryY=1;entryDx=0;entryDy=0;exitX=0.575;exitY=0.033;exitDx=0;exitDy=0;exitPerimeter=0;endFill=0;" edge="1" parent="1" source="qPw3cwsrZJyYmaxSKjIM-7" target="qPw3cwsrZJyYmaxSKjIM-1">
          <mxGeometry width="50" height="50" relative="1" as="geometry">
            <mxPoint x="380" y="350" as="sourcePoint" />
            <mxPoint x="430" y="300" as="targetPoint" />
            <Array as="points" />
          </mxGeometry>
        </mxCell>
        <mxCell id="qPw3cwsrZJyYmaxSKjIM-22" value="" style="endArrow=none;html=1;rounded=0;entryX=0.5;entryY=1;entryDx=0;entryDy=0;exitX=0.25;exitY=0;exitDx=0;exitDy=0;endFill=0;" edge="1" parent="1" source="qPw3cwsrZJyYmaxSKjIM-9" target="qPw3cwsrZJyYmaxSKjIM-1">
          <mxGeometry width="50" height="50" relative="1" as="geometry">
            <mxPoint x="570" y="300" as="sourcePoint" />
            <mxPoint x="620" y="250" as="targetPoint" />
          </mxGeometry>
        </mxCell>
        <mxCell id="qPw3cwsrZJyYmaxSKjIM-24" value="secure" style="ellipse;whiteSpace=wrap;html=1;aspect=fixed;" vertex="1" parent="1">
          <mxGeometry x="-330" y="80" width="60" height="60" as="geometry" />
        </mxCell>
        <mxCell id="qPw3cwsrZJyYmaxSKjIM-25" value="Confidennt" style="shape=xor;whiteSpace=wrap;html=1;" vertex="1" parent="1">
          <mxGeometry x="-330" y="150" width="30" height="60" as="geometry" />
        </mxCell>
        <mxCell id="qPw3cwsrZJyYmaxSKjIM-26" value="" style="endArrow=none;html=1;rounded=0;entryX=0.5;entryY=1;entryDx=0;entryDy=0;endFill=0;exitX=0.6;exitY=0.033;exitDx=0;exitDy=0;exitPerimeter=0;" edge="1" parent="1" source="qPw3cwsrZJyYmaxSKjIM-27" target="qPw3cwsrZJyYmaxSKjIM-8">
          <mxGeometry width="50" height="50" relative="1" as="geometry">
            <mxPoint x="-100" y="540" as="sourcePoint" />
            <mxPoint x="-110" y="570" as="targetPoint" />
          </mxGeometry>
        </mxCell>
        <mxCell id="qPw3cwsrZJyYmaxSKjIM-27" value="create account" style="shape=parallelogram;perimeter=parallelogramPerimeter;whiteSpace=wrap;html=1;fixedSize=1;" vertex="1" parent="1">
          <mxGeometry x="-570" y="300" width="120" height="60" as="geometry" />
        </mxCell>
        <mxCell id="qPw3cwsrZJyYmaxSKjIM-28" value="Sign in" style="shape=parallelogram;perimeter=parallelogramPerimeter;whiteSpace=wrap;html=1;fixedSize=1;" vertex="1" parent="1">
          <mxGeometry x="-550" y="390" width="120" height="60" as="geometry" />
        </mxCell>
        <mxCell id="qPw3cwsrZJyYmaxSKjIM-29" value="" style="endArrow=none;html=1;rounded=0;exitX=0.5;exitY=0;exitDx=0;exitDy=0;endFill=0;" edge="1" parent="1" source="qPw3cwsrZJyYmaxSKjIM-28">
          <mxGeometry width="50" height="50" relative="1" as="geometry">
            <mxPoint x="-140" y="610" as="sourcePoint" />
            <mxPoint x="-210" y="251" as="targetPoint" />
          </mxGeometry>
        </mxCell>
        <mxCell id="qPw3cwsrZJyYmaxSKjIM-30" value="Reset Password" style="shape=parallelogram;perimeter=parallelogramPerimeter;whiteSpace=wrap;html=1;fixedSize=1;" vertex="1" parent="1">
          <mxGeometry x="-533" y="510" width="120" height="60" as="geometry" />
        </mxCell>
        <mxCell id="qPw3cwsrZJyYmaxSKjIM-31" value="" style="endArrow=none;html=1;rounded=0;entryX=0.5;entryY=1;entryDx=0;entryDy=0;exitX=0.5;exitY=0;exitDx=0;exitDy=0;endFill=0;" edge="1" parent="1" source="qPw3cwsrZJyYmaxSKjIM-30" target="qPw3cwsrZJyYmaxSKjIM-8">
          <mxGeometry width="50" height="50" relative="1" as="geometry">
            <mxPoint x="-20" y="590" as="sourcePoint" />
            <mxPoint x="30" y="540" as="targetPoint" />
          </mxGeometry>
        </mxCell>
        <mxCell id="qPw3cwsrZJyYmaxSKjIM-32" value="Extra&lt;div&gt;authentication&lt;/div&gt;" style="shape=parallelogram;perimeter=parallelogramPerimeter;whiteSpace=wrap;html=1;fixedSize=1;" vertex="1" parent="1">
          <mxGeometry x="-440" y="570" width="120" height="60" as="geometry" />
        </mxCell>
        <mxCell id="qPw3cwsrZJyYmaxSKjIM-33" value="" style="endArrow=none;html=1;rounded=0;exitX=0.25;exitY=0;exitDx=0;exitDy=0;endFill=0;" edge="1" parent="1" source="qPw3cwsrZJyYmaxSKjIM-32">
          <mxGeometry width="50" height="50" relative="1" as="geometry">
            <mxPoint y="530" as="sourcePoint" />
            <mxPoint x="-210" y="250" as="targetPoint" />
          </mxGeometry>
        </mxCell>
        <mxCell id="qPw3cwsrZJyYmaxSKjIM-34" value="" style="endArrow=none;html=1;rounded=0;endFill=0;entryX=0.25;entryY=1;entryDx=0;entryDy=0;" edge="1" parent="1" source="qPw3cwsrZJyYmaxSKjIM-11" target="qPw3cwsrZJyYmaxSKjIM-9">
          <mxGeometry width="50" height="50" relative="1" as="geometry">
            <mxPoint x="460" y="560" as="sourcePoint" />
            <mxPoint x="530" y="410" as="targetPoint" />
            <Array as="points" />
          </mxGeometry>
        </mxCell>
        <mxCell id="qPw3cwsrZJyYmaxSKjIM-35" value="Informative&lt;div&gt;clear&lt;br&gt;&lt;div&gt;&lt;br&gt;&lt;/div&gt;&lt;/div&gt;" style="ellipse;shape=cloud;whiteSpace=wrap;html=1;" vertex="1" parent="1">
          <mxGeometry x="-250" y="670" width="120" height="80" as="geometry" />
        </mxCell>
        <mxCell id="qPw3cwsrZJyYmaxSKjIM-41" value="user" style="shape=umlActor;verticalLabelPosition=bottom;verticalAlign=top;html=1;outlineConnect=0;" vertex="1" parent="1">
          <mxGeometry x="384" y="440" width="30" height="60" as="geometry" />
        </mxCell>
        <mxCell id="qPw3cwsrZJyYmaxSKjIM-42" value="Easy to use" style="ellipse;shape=cloud;whiteSpace=wrap;html=1;" vertex="1" parent="1">
          <mxGeometry x="200" y="380" width="120" height="80" as="geometry" />
        </mxCell>
        <mxCell id="qPw3cwsrZJyYmaxSKjIM-43" value="Clean" style="ellipse;shape=cloud;whiteSpace=wrap;html=1;" vertex="1" parent="1">
          <mxGeometry x="-200" y="360" width="120" height="80" as="geometry" />
        </mxCell>
        <mxCell id="qPw3cwsrZJyYmaxSKjIM-46" value="Easy to add&amp;nbsp;&lt;div&gt;comment&lt;/div&gt;" style="ellipse;shape=cloud;whiteSpace=wrap;html=1;" vertex="1" parent="1">
          <mxGeometry x="210" y="600" width="120" height="80" as="geometry" />
        </mxCell>
        <mxCell id="qPw3cwsrZJyYmaxSKjIM-52" value="Easy to use" style="shape=tape;whiteSpace=wrap;html=1;" vertex="1" parent="1">
          <mxGeometry x="-125" y="670" width="70" height="60" as="geometry" />
        </mxCell>
        <mxCell id="qPw3cwsrZJyYmaxSKjIM-55" value="Add and&amp;nbsp;&lt;div&gt;edit Resoure&lt;/div&gt;" style="shape=parallelogram;perimeter=parallelogramPerimeter;whiteSpace=wrap;html=1;fixedSize=1;" vertex="1" parent="1">
          <mxGeometry x="600" y="360" width="120" height="60" as="geometry" />
        </mxCell>
        <mxCell id="qPw3cwsrZJyYmaxSKjIM-56" value="" style="endArrow=none;html=1;rounded=0;entryX=0.5;entryY=1;entryDx=0;entryDy=0;exitX=0.5;exitY=0;exitDx=0;exitDy=0;endFill=0;" edge="1" parent="1" source="qPw3cwsrZJyYmaxSKjIM-55" target="qPw3cwsrZJyYmaxSKjIM-1">
          <mxGeometry width="50" height="50" relative="1" as="geometry">
            <mxPoint x="570" y="320" as="sourcePoint" />
            <mxPoint x="620" y="270" as="targetPoint" />
          </mxGeometry>
        </mxCell>
        <mxCell id="qPw3cwsrZJyYmaxSKjIM-59" value="User Manger" style="shape=umlActor;verticalLabelPosition=bottom;verticalAlign=top;html=1;outlineConnect=0;" vertex="1" parent="1">
          <mxGeometry x="550" y="310" width="30" height="60" as="geometry" />
        </mxCell>
        <mxCell id="qPw3cwsrZJyYmaxSKjIM-60" value="Feedback" style="shape=parallelogram;perimeter=parallelogramPerimeter;whiteSpace=wrap;html=1;fixedSize=1;" vertex="1" parent="1">
          <mxGeometry x="780" y="220" width="120" height="60" as="geometry" />
        </mxCell>
        <mxCell id="qPw3cwsrZJyYmaxSKjIM-61" value="" style="endArrow=none;html=1;rounded=0;entryX=0.85;entryY=1.017;entryDx=0;entryDy=0;entryPerimeter=0;exitX=0;exitY=0.25;exitDx=0;exitDy=0;endFill=0;" edge="1" parent="1" source="qPw3cwsrZJyYmaxSKjIM-60" target="qPw3cwsrZJyYmaxSKjIM-1">
          <mxGeometry width="50" height="50" relative="1" as="geometry">
            <mxPoint x="670" y="230" as="sourcePoint" />
            <mxPoint x="720" y="180" as="targetPoint" />
          </mxGeometry>
        </mxCell>
        <mxCell id="qPw3cwsrZJyYmaxSKjIM-62" value="user" style="shape=umlActor;verticalLabelPosition=bottom;verticalAlign=top;html=1;outlineConnect=0;" vertex="1" parent="1">
          <mxGeometry x="910" y="210" width="30" height="60" as="geometry" />
        </mxCell>
        <mxCell id="qPw3cwsrZJyYmaxSKjIM-63" value="Delete Comment" style="shape=parallelogram;perimeter=parallelogramPerimeter;whiteSpace=wrap;html=1;fixedSize=1;" vertex="1" parent="1">
          <mxGeometry x="570" y="510" width="120" height="60" as="geometry" />
        </mxCell>
        <mxCell id="qPw3cwsrZJyYmaxSKjIM-64" value="" style="endArrow=none;html=1;rounded=0;entryX=0.342;entryY=1.017;entryDx=0;entryDy=0;entryPerimeter=0;exitX=0.45;exitY=-0.017;exitDx=0;exitDy=0;exitPerimeter=0;endFill=0;" edge="1" parent="1" source="qPw3cwsrZJyYmaxSKjIM-63" target="qPw3cwsrZJyYmaxSKjIM-55">
          <mxGeometry width="50" height="50" relative="1" as="geometry">
            <mxPoint x="600" y="500" as="sourcePoint" />
            <mxPoint x="650" y="450" as="targetPoint" />
          </mxGeometry>
        </mxCell>
        <mxCell id="qPw3cwsrZJyYmaxSKjIM-65" value="Easy to use" style="ellipse;shape=cloud;whiteSpace=wrap;html=1;" vertex="1" parent="1">
          <mxGeometry x="570" y="585" width="120" height="80" as="geometry" />
        </mxCell>
        <mxCell id="qPw3cwsrZJyYmaxSKjIM-66" value="Clear and&lt;div&gt;&amp;nbsp;convenient&lt;/div&gt;" style="ellipse;shape=cloud;whiteSpace=wrap;html=1;" vertex="1" parent="1">
          <mxGeometry x="680" y="320" width="120" height="80" as="geometry" />
        </mxCell>
        <mxCell id="qPw3cwsrZJyYmaxSKjIM-67" value="Profile" style="shape=parallelogram;perimeter=parallelogramPerimeter;whiteSpace=wrap;html=1;fixedSize=1;" vertex="1" parent="1">
          <mxGeometry x="910" y="80" width="120" height="60" as="geometry" />
        </mxCell>
        <mxCell id="qPw3cwsrZJyYmaxSKjIM-68" value="" style="endArrow=none;html=1;rounded=0;exitX=0;exitY=0.5;exitDx=0;exitDy=0;entryX=1;entryY=0.5;entryDx=0;entryDy=0;endFill=0;" edge="1" parent="1" source="qPw3cwsrZJyYmaxSKjIM-67" target="qPw3cwsrZJyYmaxSKjIM-1">
          <mxGeometry width="50" height="50" relative="1" as="geometry">
            <mxPoint x="670" y="140" as="sourcePoint" />
            <mxPoint x="720" y="90" as="targetPoint" />
          </mxGeometry>
        </mxCell>
        <mxCell id="qPw3cwsrZJyYmaxSKjIM-69" value="user" style="shape=umlActor;verticalLabelPosition=bottom;verticalAlign=top;html=1;outlineConnect=0;" vertex="1" parent="1">
          <mxGeometry x="880" y="30" width="30" height="60" as="geometry" />
        </mxCell>
        <mxCell id="qPw3cwsrZJyYmaxSKjIM-70" value="view" style="shape=parallelogram;perimeter=parallelogramPerimeter;whiteSpace=wrap;html=1;fixedSize=1;" vertex="1" parent="1">
          <mxGeometry x="1130" y="102" width="120" height="60" as="geometry" />
        </mxCell>
        <mxCell id="qPw3cwsrZJyYmaxSKjIM-71" value="" style="endArrow=none;html=1;rounded=0;entryX=1;entryY=0.75;entryDx=0;entryDy=0;endFill=0;" edge="1" parent="1" source="qPw3cwsrZJyYmaxSKjIM-70" target="qPw3cwsrZJyYmaxSKjIM-67">
          <mxGeometry width="50" height="50" relative="1" as="geometry">
            <mxPoint x="1030" y="160" as="sourcePoint" />
            <mxPoint x="1080" y="110" as="targetPoint" />
          </mxGeometry>
        </mxCell>
        <mxCell id="qPw3cwsrZJyYmaxSKjIM-72" value="Favorites" style="shape=parallelogram;perimeter=parallelogramPerimeter;whiteSpace=wrap;html=1;fixedSize=1;" vertex="1" parent="1">
          <mxGeometry x="1100" y="190" width="120" height="60" as="geometry" />
        </mxCell>
        <mxCell id="qPw3cwsrZJyYmaxSKjIM-73" value="" style="endArrow=none;html=1;rounded=0;entryX=0.75;entryY=1;entryDx=0;entryDy=0;endFill=0;" edge="1" parent="1" source="qPw3cwsrZJyYmaxSKjIM-72" target="qPw3cwsrZJyYmaxSKjIM-67">
          <mxGeometry width="50" height="50" relative="1" as="geometry">
            <mxPoint x="990" y="230" as="sourcePoint" />
            <mxPoint x="1040" y="180" as="targetPoint" />
          </mxGeometry>
        </mxCell>
      </root>
    </mxGraphModel>
  </diagram>
</mxfile>
